<?xml version="1.0" standalone="no"?>
<!DOCTYPE svg PUBLIC "-//W3C//DTD SVG 1.1//EN" "http://www.w3.org/Graphics/SVG/1.1/DTD/svg11.dtd" >
<svg xmlns="http://www.w3.org/2000/svg">
<metadata></metadata>
<defs>
<font id="amablesans" horiz-adv-x="1126" >
<font-face units-per-em="2048" ascent="1638" descent="-410" />
<missing-glyph horiz-adv-x="614" />
<glyph horiz-adv-x="0" />
<glyph unicode="&#xd;" horiz-adv-x="614" />
<glyph horiz-adv-x="0" />
<glyph horiz-adv-x="0" />
<glyph unicode=" "  horiz-adv-x="614" />
<glyph unicode="&#x09;" horiz-adv-x="614" />
<glyph unicode="&#xa0;" horiz-adv-x="614" />
<glyph unicode="!" horiz-adv-x="204" d="M51 53q0 18 15.5 33.5t33.5 15.5q23 0 38.5 -15t15.5 -34q0 -23 -15.5 -38t-38.5 -15q-18 0 -33.5 15.5t-15.5 37.5zM51 184v1864h103v-1864h-103z" />
<glyph unicode="&#x22;" horiz-adv-x="311" d="M0 1849v199h100v-199h-100zM154 1849v199h100v-199h-100z" />
<glyph unicode="%" horiz-adv-x="2146" d="M51 1524q0 106 41 202.5t111.5 167t165.5 112.5t204 42t204 -42t166 -112.5t112 -167t41 -202.5q0 -109 -41 -204t-112 -166t-166 -112t-204 -41t-204 41t-165.5 112t-111.5 166t-41 204zM156 1524q0 -43 8 -83t24 -79q33 -78 91 -133q59 -57 133 -90q39 -16 78.5 -24.5 t82.5 -8.5q82 0 164 33q76 35 131 90q59 55 90 133q16 39 23.5 79t7.5 83q0 41 -7 83t-24 81q-31 76 -90 131q-29 29 -61.5 51t-69.5 39q-39 16 -81 23t-83 7q-43 0 -82.5 -7t-78.5 -23q-37 -16 -71 -39t-62 -51q-55 -55 -91 -131q-33 -82 -32 -164zM752 29l540 2019 l103 -29l-541 -2019zM1051 522q0 109 41 204t111.5 166t165.5 111.5t204 40.5q106 0 201.5 -40.5t167 -111.5t112.5 -166t41 -204t-41 -204t-112.5 -165.5t-167 -111.5t-201.5 -41q-109 0 -204 41t-165.5 111.5t-111.5 166t-41 203.5zM1155 522q0 -86 31 -162t92 -133 q55 -55 131 -90q41 -16 81 -24.5t83 -8.5q41 0 81 8.5t81 24.5q39 16 71.5 38.5t61.5 51.5q57 61 88 133q16 39 24.5 79t8.5 83q0 82 -33 164q-31 74 -88 131q-61 61 -133 90q-41 16 -81 23.5t-81 7.5q-43 0 -83 -7t-81 -24q-76 -31 -131 -90q-59 -53 -92 -131 q-31 -78 -31 -164z" />
<glyph unicode="'" horiz-adv-x="237" d="M18 1100l146 147l74 -71l-146 -148z" />
<glyph unicode="(" horiz-adv-x="614" d="M51 510v2v1024q0 104 41 197q35 92 111 163q72 76 164 111q94 41 196 41v-102q-78 0 -157 -35q-72 -31 -132 -86q-55 -59 -86 -131q-35 -80 -34 -158v-1024q0 -78 34 -158q31 -72 86 -131q59 -55 132 -86q80 -35 157 -35v-102q-102 0 -196 41q-92 35 -164 111 q-76 72 -111 163q-20 45 -29.5 94.5t-11.5 100.5z" />
<glyph unicode=")" horiz-adv-x="616" d="M51 0v104q82 0 160 31q37 16 69.5 38t61.5 50q53 57 88 131q31 76 31 160v1020q0 82 -31 160q-16 37 -37.5 68.5t-50.5 62.5q-29 29 -61.5 50t-69.5 38q-78 31 -160 31v104q51 0 101.5 -10t99.5 -29q90 -39 164 -113q35 -35 62.5 -74.5t47.5 -86.5q39 -100 39 -197v-4 v-1020v-6q0 -94 -39 -195q-20 -47 -47.5 -88t-62.5 -75q-70 -70 -164 -111q-49 -18 -99.5 -28.5t-101.5 -10.5z" />
<glyph unicode="+" horiz-adv-x="872" d="M51 463v98h336v336h98v-336h336v-98h-336v-336h-98v336h-336z" />
<glyph unicode="," horiz-adv-x="204" d="M51 96h101v-198h-101v198z" />
<glyph unicode="-" horiz-adv-x="899" d="M51 461v104h797v-104h-797zM51 461v104h797v-104h-797z" />
<glyph unicode="." horiz-adv-x="204" d="M51 53q0 18 15.5 33.5t33.5 15.5q23 0 38.5 -15t15.5 -34q0 -23 -15.5 -38t-38.5 -15q-18 0 -33.5 15.5t-15.5 37.5z" />
<glyph unicode="/" horiz-adv-x="745" d="M51 27l541 2021l102 -27l-540 -2021z" />
<glyph unicode="0" horiz-adv-x="1128" d="M51 508v8v1016v4q0 104 41 199q39 94 109 163q37 35 76.5 63t87.5 46q90 41 202 41q51 0 101.5 -9t97.5 -32q88 -37 164 -109q68 -70 108 -163q20 -47 28.5 -96.5t10.5 -102.5v-4v-1016v-8q-2 -49 -10 -98.5t-29 -96.5q-41 -92 -108 -163q-37 -35 -78 -62t-86 -47 q-98 -41 -199 -41q-104 0 -202 41q-92 41 -164 109q-68 72 -109 163q-20 47 -29.5 96.5t-11.5 98.5zM154 516q0 -84 32 -162q33 -78 88 -131q53 -55 132 -88q78 -33 161 -33q76 0 158 33q37 16 69.5 38t59.5 50q59 57 88 131q35 76 35 162v1016q0 86 -35 162q-29 74 -88 131 q-27 29 -59.5 50t-69.5 38q-82 33 -158 33q-84 0 -161 -33q-78 -33 -132 -88q-55 -53 -88 -131t-32 -162v-1016zM512 1024q0 20 16 34.5t39 14.5q20 0 34.5 -14.5t14.5 -34.5q0 -23 -14 -37t-35 -14q-23 0 -39 14t-16 37z" />
<glyph unicode="1" horiz-adv-x="612" d="M49 1946v102q53 0 103.5 -9t97.5 -32q96 -39 162 -111q74 -70 112 -161q20 -47 28.5 -96.5t8.5 -100.5v-1538h-100v1536q0 84 -35 160q-14 37 -35.5 68.5t-50.5 60.5q-59 59 -129 86q-82 35 -162 35z" />
<glyph unicode="2" horiz-adv-x="1124" d="M49 1536q0 100 41 199q39 92 111 161q70 74 159 111q100 41 201 41q100 0 201 -41q90 -37 162 -111q72 -70 110 -161q23 -47 31 -96.5t8 -102.5t-8 -102.5t-31 -98.5q-39 -96 -110 -161q-68 -72 -162 -109q-47 -23 -97.5 -32t-101.5 -9q-86 0 -160 -33 q-37 -16 -68.5 -36.5t-60.5 -49.5t-51 -61.5t-39 -67.5q-31 -78 -30 -160v-512h921v-104h-921h-103v627q0 98 39 188q41 92 111 162q74 74 164 108q47 18 96 29.5t100 11.5q82 0 160 33q74 31 131 88q29 27 50.5 59.5t37.5 69.5q29 72 33 160q-4 86 -33 158q-35 74 -88 131 q-57 53 -131 88q-74 31 -160 31q-84 0 -158 -31q-74 -35 -131 -88q-53 -57 -88 -131q-31 -74 -30 -158h-105z" />
<glyph unicode="3" d="M51 565h105v-24.5t2 -22.5q6 -86 39.5 -162.5t93.5 -132.5q55 -59 124.5 -89t145.5 -30q88 0 160 35t127 99q31 31 52.5 67.5t37.5 77.5q33 84 33 182q0 47 -8.5 92t-24.5 86t-37.5 79t-52.5 71q-29 29 -60.5 54.5t-66.5 41.5q-80 35 -154 35h-6v104h6q78 0 156 31 q68 29 129 88q55 57 86 129q33 74 33 158t-33 162q-31 70 -86 129q-29 29 -61.5 50t-67.5 36q-78 33 -162 33t-158 -33q-70 -27 -129 -86q-57 -57 -88 -129q-31 -80 -30 -162h-105q0 53 10.5 103.5t28.5 97.5q20 45 48 87t63 76q35 35 75.5 63t88.5 48q100 39 196 39 q53 0 103.5 -10t97.5 -29q90 -41 164 -111q35 -35 62.5 -76.5t45.5 -86.5q41 -98 41 -201q0 -98 -41 -197q-18 -47 -45.5 -88t-62.5 -75q-31 -31 -68 -55.5t-76 -45.5q83 -44 146 -110q70 -84 108 -181q18 -53 28.5 -107t10.5 -110q0 -59 -10 -112.5t-29 -106.5 q-41 -102 -108 -180q-35 -39 -76 -69.5t-88 -51.5q-92 -45 -203 -45q-96 0 -185 38t-161 112q-70 72 -111 162.5t-51 195.5q0 14 -1 27.5t-1 29.5z" />
<glyph unicode="4" horiz-adv-x="1124" d="M51 1470v15v563h105v-563q0 -84 30 -160q31 -72 88 -129q29 -29 61 -50.5t68 -37.5q78 -33 160 -33h408v973h102v-2048h-102v973h-439q-45 2 -87 12t-83 27q-90 41 -161 110q-70 70 -109 160q-20 47 -29.5 94t-11.5 94z" />
<glyph unicode="5" horiz-adv-x="1124" d="M47 512h103q0 -80 32 -158q33 -78 88 -131q53 -55 131 -88t158 -33q78 0 160 33q35 16 67.5 38t61.5 50q59 59 88 131q33 78 33 158v49q0 78 -33 160q-31 72 -88 129q-29 29 -61.5 50.5t-67.5 37.5q-74 33 -160 33q-51 0 -101 9t-98 30q-94 39 -161 110q-37 35 -66 75 t-45 87q-16 33 -24.5 68.5t-12.5 72.5v625h99h923v-102h-923v-463q0 -82 32 -160q35 -76 88 -129q55 -57 131 -88q72 -33 158 -33q53 0 103.5 -9t97.5 -32q90 -37 162 -108q74 -74 110 -162q18 -47 28.5 -95.5t10.5 -99.5v-59q0 -98 -39 -195q-18 -47 -47 -87t-63 -74 q-72 -74 -162 -109q-96 -43 -201 -43q-106 0 -199 43q-92 33 -161 109q-76 70 -109 161q-43 92 -43 199z" />
<glyph unicode="6" horiz-adv-x="1128" d="M49 514v13.5t2 15.5v993v2q0 106 39 197q39 92 111 163q35 35 74.5 63t86.5 48q100 39 201 39q51 0 101.5 -10t99.5 -29q88 -41 160 -111q74 -70 112 -163q18 -47 28.5 -96.5t10.5 -102.5h-102q0 78 -33 160q-35 76 -88 129q-53 57 -129 88q-78 31 -160 31t-162 -31 q-35 -16 -67.5 -38t-59.5 -50q-57 -57 -90 -129q-31 -78 -30 -160v-713q72 92 178 146.5t231 54.5q106 0 199.5 -40t163 -109.5t110.5 -161.5t41 -199q0 -106 -41 -200.5t-110.5 -164t-162.5 -109.5t-200 -40q-106 0 -200.5 40t-164 109.5t-109.5 164t-40 200.5zM154 514 q0 -82 30 -162q31 -72 88 -129t129 -88q80 -31 162 -31t160 31q37 16 68.5 37.5t60.5 50.5q57 57 88 129q33 78 33 162q0 41 -8.5 81t-24.5 79q-16 37 -37.5 68.5t-50.5 60.5t-60.5 50t-68.5 38q-39 16 -79 24.5t-81 8.5q-84 0 -162 -33q-72 -31 -129 -88q-29 -29 -50 -60.5 t-38 -68.5q-29 -66 -30 -135v-25z" />
<glyph unicode="7" horiz-adv-x="1128" d="M53 1946v102h510h2q100 0 201 -39q88 -41 160 -111q35 -35 63.5 -75.5t46.5 -87.5q41 -94 41 -195v-4v-1536h-104v975h-410v100h410v461q0 41 -7.5 81t-27.5 79q-29 74 -84 129q-57 57 -131 88q-82 33 -160 33h-510z" />
<glyph unicode="8" horiz-adv-x="1128" d="M49 1532q0 106 40 200.5t109.5 164t164 110.5t202.5 41q104 0 197.5 -41t163 -110.5t110.5 -164t41 -200.5q0 -150 -81 -271.5t-210 -187.5q80 -39 138 -98q72 -66 110 -162q41 -94 41 -195v-6v-100v-4q0 -100 -41 -195q-39 -96 -110 -161q-35 -37 -75 -64t-87 -47 q-47 -18 -97.5 -29.5t-99.5 -11.5q-53 0 -103 11.5t-97 29.5q-47 20 -88 47t-76 64q-37 35 -63.5 74.5t-47.5 86.5q-39 96 -39 195v4v100v6q0 49 10.5 98.5t28.5 96.5q20 47 47 87t64 75q61 61 135 98q-63 33 -115.5 80t-90.5 106.5t-59.5 129t-21.5 143.5zM152 512 q0 -82 32 -158q16 -37 38 -69.5t50 -61.5q55 -55 131 -88q74 -33 162 -33q82 0 156 33q39 16 70.5 37.5t62.5 50.5q53 55 84 131q16 35 25.5 76t9.5 82v100q0 43 -9.5 83t-25.5 79q-16 35 -35.5 67.5t-48.5 61.5q-31 29 -62.5 49.5t-70.5 36.5q-33 14 -68 22.5t-71 10.5 q-4 0 -8.5 -1t-8.5 -1q-8 0 -12 1t-8 1q-39 -2 -73 -10t-69 -23q-74 -33 -131 -86q-57 -57 -88 -129q-16 -39 -24 -79t-8 -83v-100zM152 1532q-1 -84 32 -156q31 -76 88 -133q29 -29 63 -48t68 -36q63 -29 142 -35h20h17q37 4 71.5 11.5t67.5 23.5q78 31 133 84 q53 55 84 133q16 37 25.5 76t9.5 80q0 43 -9.5 83t-25.5 79q-16 35 -35.5 68.5t-48.5 62.5t-61.5 50t-71.5 38q-78 33 -156 33q-43 0 -83 -8.5t-79 -24.5q-70 -31 -131 -88q-55 -55 -88 -131q-33 -74 -32 -162z" />
<glyph unicode="9" d="M51 1536q0 104 41 197.5t110.5 163t163 110.5t197.5 41q106 0 199.5 -41t163 -110.5t109.5 -163t40 -197.5v-1536h-100v1227q-72 -92 -178.5 -147.5t-233.5 -55.5q-104 0 -197.5 40t-163 109.5t-110.5 163t-41 199.5zM154 1536q0 -43 8 -82t24 -78q31 -76 88 -129 q29 -29 61 -50t71 -38q72 -35 157 -35q88 0 160 35q74 31 131 88q55 55 86 129q35 72 35 160q0 86 -35 158q-16 39 -37.5 70.5t-48.5 60.5q-57 57 -131 88q-39 16 -78 24.5t-82 8.5q-41 0 -80 -8.5t-77 -24.5q-72 -29 -132 -88q-29 -29 -50 -60.5t-38 -70.5q-16 -39 -24 -78 t-8 -80z" />
<glyph unicode=":" horiz-adv-x="172" d="M31 49q0 23 14 37t35 14q23 0 37 -14t14 -37q0 -20 -14.5 -34.5t-36.5 -14.5q-20 0 -34.5 14.5t-14.5 34.5zM31 719q0 20 14 34.5t35 14.5q23 0 37 -14.5t14 -34.5q0 -23 -14.5 -37t-36.5 -14q-20 0 -34.5 14t-14.5 37z" />
<glyph unicode=";" horiz-adv-x="194" d="M51 96h101v-198h-101v198zM51 721q0 20 15.5 33.5t31.5 13.5q23 0 38.5 -13.5t15.5 -33.5q0 -23 -15.5 -38t-38.5 -15q-16 0 -31.5 15t-15.5 38z" />
<glyph unicode="=" horiz-adv-x="890" d="M51 231v103h789v-103h-789zM51 690v103h789v-103h-789z" />
<glyph unicode="?" d="M49 1536q0 100 41 199q39 96 109 163q72 72 163 109q94 41 199 41q102 0 197 -41q88 -37 164 -109q72 -72 108 -163q18 -47 29.5 -96.5t11.5 -98.5v-4v-61q-2 -96 -41 -191q-39 -94 -108 -164q-78 -70 -164 -106q-47 -20 -96.5 -29.5t-100.5 -11.5q-41 0 -80 -7.5 t-78 -23.5q-72 -31 -129 -90q-29 -27 -50 -59.5t-38 -67.5q-33 -82 -32 -158v-385h-103v387q0 100 41 195q37 94 109 162q35 37 75.5 63.5t85.5 46.5q100 39 199 39q84 0 158 33q37 14 69.5 36.5t61.5 51.5t49.5 60.5t34.5 66.5q35 82 35 160v53q0 43 -9.5 82t-25.5 78 q-27 70 -84 131q-59 55 -131 86q-82 33 -158 33q-43 0 -82 -8.5t-78 -24.5q-78 -33 -131 -86q-55 -59 -86 -131q-33 -74 -32 -160h-103zM51 53q0 20 14 34.5t37 14.5q20 0 36 -14t16 -35q0 -23 -15.5 -38t-36.5 -15q-23 0 -37 15.5t-14 37.5z" />
<glyph unicode="@" horiz-adv-x="1751" d="M51 512q0 86 16.5 164t49.5 155q31 74 76 139.5t100 123.5q57 59 123.5 102t138.5 74q78 33 157 49t165 16t163.5 -16t155.5 -49q152 -63 262 -176q113 -111 176 -263q33 -78 49.5 -155.5t16.5 -163.5q0 -53 -6 -106.5t-23 -104.5q-10 -47 -29.5 -97t-42.5 -98 q-10 -16 -19 -31.5t-24 -29.5q-33 -31 -73.5 -48t-85.5 -17q-90 0 -156 65q-16 14 -27.5 31.5t-19.5 34.5q-66 -53 -146.5 -82t-170.5 -29q-106 0 -199.5 40t-163.5 109.5t-111 163t-41 199.5t41 199.5t111 163t163 109.5t200 40q104 0 197 -40t163 -109.5t111 -163 t41 -199.5q0 -92 -30 -174t-85 -148q8 -47 42 -76.5t81 -29.5q61 0 98 45q4 4 9 10t9 13q0 10 3 12q0 4 2 6q39 72 63 156q10 45 15.5 92t5.5 94q0 147 -58 281q-25 66 -64.5 124t-90.5 107q-96 98 -232 156q-133 57 -280 57q-150 0 -283 -57q-66 -29 -124 -67t-108 -89 q-98 -96 -155 -231q-57 -133 -57 -281q0 -150 57 -283q29 -66 66.5 -124t88.5 -107q49 -51 107.5 -89t124.5 -67q133 -57 283 -57q158 0 297 63l40 -90q-78 -35 -163.5 -53t-173.5 -18q-86 0 -165 16t-157 49q-72 31 -138.5 76t-123.5 100q-55 57 -100.5 124t-75.5 138 q-33 78 -49.5 157t-16.5 165zM463 512q0 -43 7 -84t24 -76q33 -82 90 -133q57 -57 133 -88q35 -18 76 -25.5t84 -7.5q41 0 82.5 7.5t78.5 25.5q70 31 131 88q55 53 88 133q16 35 22.5 76t6.5 84q0 41 -6 83t-23 79q-16 37 -37.5 70.5t-50.5 60.5q-29 33 -62.5 52.5 t-68.5 35.5q-37 18 -78.5 23.5t-82.5 5.5q-43 0 -84 -5.5t-76 -23.5q-39 -16 -72 -35.5t-61 -52.5q-31 -27 -52.5 -60.5t-37.5 -70.5t-23.5 -79t-7.5 -83z" />
<glyph unicode="A" d="M51 0v459v106v969v6q0 49 9.5 99.5t31.5 95.5q37 96 113 159q35 39 73.5 65t83.5 46q47 23 98.5 32t98.5 9q53 0 105.5 -9t99.5 -32q45 -20 85 -46t75 -65q74 -68 112 -159q20 -45 28.5 -95.5t10.5 -99.5v-6v-969v-106v-459h-102v459h-817v-459h-105zM156 565h817v969 q0 86 -33 164q-16 35 -38.5 66.5t-47.5 58.5q-29 29 -60.5 49t-66.5 39q-41 16 -82 25.5t-86 9.5q-41 0 -79 -9.5t-77 -25.5q-39 -18 -70.5 -39t-53.5 -49q-59 -53 -91 -125q-32 -76 -32 -159v-5v-969z" />
<glyph unicode="B" d="M51 510v53v461v104v408v4q2 51 11.5 99.5t29.5 95.5q39 88 111 163q35 35 75.5 63t88.5 48q96 39 196 39q51 0 101.5 -10t99.5 -29q45 -20 86 -48t76 -63q35 -37 62.5 -76.5t45.5 -86.5q23 -47 32 -97.5t9 -101.5t-9 -101.5t-32 -97.5q-39 -94 -108 -163 q-33 -31 -68 -56.5t-76 -44.5q78 -38 146 -112q68 -76 108 -179q39 -102 39 -219t-39 -215q-39 -100 -108 -182q-72 -78 -162 -121q-96 -45 -203 -45q-96 0 -185 38t-161 112q-70 72 -110.5 164t-51.5 196h-4zM156 563q0 -12 1 -23.5t1 -23.5q8 -86 41.5 -160.5t91.5 -132.5 q57 -59 126.5 -89t145.5 -30q78 0 158 35q74 35 129 97q57 63 88 149q35 88 35 178q0 94 -35 180q-31 84 -88 148q-29 33 -61.5 57.5t-67.5 40.5q-37 18 -76 26.5t-80 8.5h-2h-407v-461zM156 1128h407h2q78 0 156 33q37 16 69.5 37t61.5 49q29 29 49.5 61.5t36.5 69.5 q35 76 35 158q0 78 -35 158q-16 37 -36.5 69.5t-49.5 61.5t-61.5 50t-69.5 38q-74 31 -158 31q-82 0 -157 -31q-74 -31 -132 -88q-57 -57 -88 -131q-31 -78 -30 -158v-408z" />
<glyph unicode="C" horiz-adv-x="1130" d="M51 508v4v1024v2q0 102 41 197q18 47 46 88t63 75q74 70 164 111q92 39 198 39t203 -39q45 -20 86 -48t76 -63q70 -70 110 -163q41 -94 41 -199h-104q0 86 -33 160q-16 35 -37.5 67.5t-50.5 63.5q-55 55 -131 86q-74 31 -160 31q-82 0 -157 -31q-72 -31 -132 -86 q-29 -31 -50 -63.5t-38 -67.5q-30 -76 -30 -155v-5v-1024q0 -82 30 -158q16 -37 38 -69.5t50 -61.5q29 -29 62 -50t70 -38q76 -31 157 -31q86 0 160 31q39 16 70.5 38t60.5 50q29 29 50.5 61.5t37.5 69.5q33 74 33 158h104q0 -100 -41 -199q-20 -45 -47.5 -87t-62.5 -76 q-35 -35 -76 -63t-86 -46q-100 -41 -203 -41q-100 0 -198 41q-45 18 -87 46t-77 63t-62.5 76.5t-46.5 86.5q-41 94 -41 195z" />
<glyph unicode="D" d="M51 0v104v1842v102h512v-102h-407v-1842h407v-104h-407h-105zM563 0v104q82 0 160 31q37 16 69.5 37t61.5 49q55 59 86 131q16 39 24.5 79t8.5 81v1024q0 86 -33 160q-31 72 -86 131q-29 29 -61.5 49t-69.5 37q-82 33 -160 33v102q53 0 103.5 -9t97.5 -32 q94 -37 162 -109q35 -35 63.5 -74.5t46.5 -86.5t28.5 -96.5t10.5 -102.5v-2v-1024q0 -104 -39 -201q-37 -90 -110 -159q-35 -37 -75 -64t-87 -47q-47 -23 -97.5 -32t-103.5 -9z" />
<glyph unicode="E" horiz-adv-x="1128" d="M51 510v2v1024v2q0 102 41 197q20 47 47 87t62 76q37 35 76.5 62t87.5 47q98 41 198 41v-104q-84 0 -157 -31q-72 -31 -130 -90q-59 -57 -90 -129q-30 -72 -30 -153v-5v-461h921v-100h-921v-463q0 -84 30 -158q31 -72 90 -129q57 -59 130 -90q74 -31 157 -31v-104 q-100 0 -198 41q-47 20 -87 47t-77 62q-35 37 -61.5 76.5t-47.5 86.5q-41 98 -41 197zM563 0v104h514v-104h-514zM563 1944v104h514v-104h-514z" />
<glyph unicode="F" d="M51 0v1536v4q0 100 41 195q18 47 46 87t63 76q37 35 76.5 63t87.5 46q94 41 198 41v-104q-86 0 -160 -31q-72 -31 -129 -88q-59 -61 -88 -129q-30 -72 -30 -155v-5v-461h919v-100h-919v-975h-105zM563 1944v104h512v-104h-512z" />
<glyph unicode="G" horiz-adv-x="1128" d="M51 508v4v1022v2q0 100 41 199q37 90 109 161q76 72 164 111q98 41 198 41q102 0 201 -41q96 -41 162 -111q72 -70 110 -161q23 -47 32 -97.5t9 -103.5h-102q0 78 -33 160q-16 37 -37.5 68.5t-50.5 60.5q-53 55 -131 88q-72 33 -160 33q-86 0 -157 -33q-78 -33 -132 -88 q-29 -29 -50 -60.5t-38 -68.5q-30 -76 -30 -155v-5v-1022q0 -84 30 -158q31 -74 88 -131t132 -88q74 -31 157 -31q86 0 160 31t131 88t88 131q33 78 33 158v459h-410v102h512v-102v-459v-4q0 -100 -41 -195q-35 -88 -110 -163q-68 -72 -162 -109q-98 -41 -201 -41 q-100 0 -198 41q-47 18 -87 46t-77 63q-35 37 -62.5 76.5t-46.5 86.5q-41 94 -41 195z" />
<glyph unicode="H" d="M51 0v973v102v973h105v-973h815v973h104v-973v-102v-973h-104v973h-815v-973h-105z" />
<glyph unicode="I" horiz-adv-x="204" d="M51 0v2048h103v-2048h-103z" />
<glyph unicode="J" horiz-adv-x="1128" d="M51 510v2v508h105v-508q0 -41 6 -82t22 -76q18 -37 40 -69.5t50 -61.5q29 -29 62 -50t70 -40q35 -16 75.5 -22.5t81.5 -6.5q88 0 158 29q78 37 133 90q53 53 86 131q16 35 24.5 76t8.5 82v1536h104v-1536v-2q-4 -53 -12 -101.5t-27 -95.5q-43 -90 -112 -163 q-72 -72 -164 -109q-94 -41 -199 -41q-104 0 -198 41q-47 18 -87 46t-77 63q-35 37 -62.5 76.5t-46.5 86.5q-37 88 -41 197z" />
<glyph unicode="K" horiz-adv-x="1124" d="M51 0v535v10v1503h103v-1145l835 651l68 -81l-557 -435q16 2 30.5 3t30.5 1q53 0 103.5 -10t97.5 -26q47 -20 88 -47t76 -64q70 -70 108 -164q39 -90 39 -180v-8v-8v-535h-102v539q0 41 -8.5 79.5t-22.5 73.5q-16 37 -37.5 70t-50.5 63q-29 27 -60.5 48.5t-70.5 35.5 q-76 35 -160 35q-78 0 -158 -35q-37 -14 -68.5 -35.5t-60.5 -48.5q-29 -31 -50 -63.5t-38 -69.5q-29 -72 -32 -147v-545h-103z" />
<glyph unicode="L" d="M51 506v6v1536h105v-1536q0 -43 7 -83t23 -77q33 -78 88 -131q55 -55 132 -90q76 -29 159 -29q80 0 160 29q68 33 129 90q57 57 88 131q33 78 33 160h100q0 -53 -8 -102.5t-31 -98.5q-18 -45 -45.5 -86t-62.5 -75q-35 -37 -76 -64t-86 -45q-98 -43 -201 -43 q-106 0 -200 43q-96 39 -164 109q-35 35 -61.5 75.5t-49.5 85.5q-39 100 -39 195z" />
<glyph unicode="M" horiz-adv-x="2043" d="M51 0v1536q0 100 41 199q16 47 44 87t63 79q35 33 75.5 60.5t87.5 45.5q98 41 201 41q100 0 195 -41q47 -18 89 -46t77 -60q29 -33 53 -68t43 -76q43 82 98 144q35 33 77 60.5t89 45.5q98 41 199 41q98 0 196 -41q47 -18 88 -46t78 -60q35 -39 61.5 -79t47.5 -87 q18 -47 28.5 -96.5t10.5 -102.5v-1536h-103v1536q0 84 -30 158q-31 76 -93 129q-49 59 -125 90q-41 16 -79.5 23.5t-79.5 7.5q-43 0 -83 -7.5t-81 -23.5q-35 -16 -66.5 -39t-58.5 -51q-57 -51 -90 -129q-31 -74 -31 -158v-1536h-102v1536q0 88 -35 158q-14 41 -36.5 71.5 t-47.5 57.5q-61 61 -133 90q-39 16 -78 23.5t-78 7.5q-45 0 -83 -7.5t-74 -23.5q-78 -31 -136 -90q-27 -27 -49 -57.5t-39 -71.5q-26 -69 -26 -146v-6v-1542h-105z" />
<glyph unicode="N" horiz-adv-x="1124" d="M51 0v1536v10v25q4 43 14.5 84t26.5 80q37 92 109 163q70 70 164 111q90 39 198 39q102 0 199 -39q92 -41 162 -111t110 -163q39 -90 39 -197v-2v-1536h-102v1536q0 78 -33 160q-31 72 -88 129q-29 29 -61.5 50t-67.5 38q-82 33 -158 33q-80 0 -157 -33q-78 -33 -132 -88 q-29 -29 -50 -61.5t-38 -67.5q-29 -68 -32 -150v-1546h-103z" />
<glyph unicode="O" horiz-adv-x="1130" d="M51 510v4v1022v2q0 98 41 197q41 94 111 163q35 35 75.5 63t86.5 48q49 18 98 28.5t102 10.5q98 0 199 -39q47 -20 88 -48t76 -63q72 -76 110 -163q39 -98 41 -197v-2v-1022v-4q-4 -98 -41 -197q-41 -92 -110 -161q-35 -37 -76 -64t-88 -47q-98 -41 -199 -41 q-100 0 -200 41q-45 20 -86 47t-76 64q-37 35 -63.5 75.5t-47.5 85.5q-20 47 -29.5 97.5t-11.5 99.5zM156 514q0 -84 30 -160q35 -74 88 -131q57 -53 132 -88q76 -31 159 -31q80 0 160 31q72 35 131 88q27 29 48.5 61.5t37.5 69.5q33 82 33 160v1022q0 76 -33 158 q-31 72 -86 131q-59 57 -131 88q-80 31 -160 31q-84 0 -159 -31q-74 -31 -132 -88q-29 -29 -50 -61.5t-38 -69.5q-31 -78 -30 -158v-1022z" />
<glyph unicode="P" d="M51 0v2048h2h510h8q98 0 191 -41q92 -37 164 -109t108 -163q41 -94 41 -197v-2v-512v-4q0 -100 -41 -195q-35 -88 -108 -161q-70 -70 -164 -111q-47 -20 -96.5 -29.5t-100.5 -11.5h-411v-512h-103zM154 616h409q82 0 160 31q72 31 129 88q29 29 50.5 61.5t37.5 69.5 q33 78 33 158v512q0 78 -33 160q-31 72 -88 129q-29 29 -61.5 50t-67.5 38q-82 33 -160 33h-409v-1330z" />
<glyph unicode="Q" d="M51 510v4v1020v2q0 102 41 197q39 92 111 163q37 35 76.5 63t87.5 48q98 41 198 41t201 -41q45 -20 86 -48t76 -63q37 -37 64.5 -76.5t45.5 -86.5q20 -47 28.5 -96.5t8.5 -100.5v-2v-1020v-4q0 -51 -8 -99.5t-29 -95.5q-18 -47 -45.5 -87t-64.5 -76q-35 -37 -76 -64 t-86 -47q-100 -41 -201 -41q-100 0 -198 41q-92 39 -164 111t-111 163q-20 47 -29.5 95.5t-11.5 99.5zM156 514q0 -84 30 -160q33 -74 88 -131q57 -55 132 -88q27 -10 52 -17t54 -9v401h106v-401q29 2 53.5 9t53.5 17q70 33 131 88q29 29 50.5 61.5t37.5 69.5q33 82 33 160 v1020q0 78 -33 160q-35 74 -88 131q-61 55 -131 88q-78 31 -160 31q-84 0 -159 -31q-74 -33 -132 -88q-27 -29 -49 -61.5t-39 -69.5q-30 -76 -30 -155v-5v-1020z" />
<glyph unicode="R" d="M51 0v2048h2h510h6q100 -2 193 -41q47 -20 88 -47t76 -62q35 -37 62.5 -76.5t45.5 -86.5q41 -94 41 -197v-2v-512v-4q0 -96 -41 -195q-18 -47 -45.5 -88t-62.5 -75q-35 -35 -76 -63t-88 -46q-66 -29 -135 -37l448 -444v-72h-69l-525 512h-327v-512h-103zM154 616h409 q82 0 160 31q72 31 129 88q59 61 88 129q16 39 23.5 79t7.5 81v512q0 41 -7.5 81t-23.5 77q-31 74 -88 131q-29 29 -61.5 50t-67.5 38q-82 33 -160 33h-409v-1330z" />
<glyph unicode="S" horiz-adv-x="1128" d="M51 512h105q0 -84 30 -158q16 -37 38 -69.5t50 -61.5q57 -53 132 -88q74 -31 157 -31q82 0 160 31q76 35 129 88q55 53 88 131q33 72 33 156v39q0 86 -33 160q-31 74 -88 131q-53 57 -129 86q-80 35 -160 35q-106 0 -198 38q-90 39 -162 111q-35 35 -63.5 76t-47.5 88 q-41 94 -41 199v77q2 92 41 185q18 47 47 87t64 74q35 35 74.5 64t87.5 47q98 41 198 41q102 0 201 -41q47 -18 87 -47t75 -64t63.5 -74.5t46.5 -86.5q41 -98 41 -199h-104q0 41 -8.5 81t-24.5 77q-31 74 -88 131q-53 53 -129 88q-78 31 -160 31q-84 0 -157 -31 q-74 -35 -132 -88q-53 -57 -88 -131q-30 -72 -30 -153v-5v-74q0 -39 8 -76.5t22 -72.5q16 -35 38 -69t50 -62q57 -53 132 -88q74 -31 157 -31q104 0 199 -41q94 -37 164 -111q74 -72 110 -161q39 -92 39 -201l2 -37v-2v-4q-4 -104 -41 -193q-18 -47 -46.5 -87t-63.5 -74 q-72 -74 -162 -111q-98 -41 -201 -41q-100 0 -198 41q-90 37 -162 111q-35 35 -63.5 74.5t-47.5 86.5q-41 98 -41 199z" />
<glyph unicode="T" horiz-adv-x="976" d="M51 1898q72 72 162 111q92 39 199 39h514v-102h-367v-1946h-104v1946h-45q-82 0 -156 -31q-76 -35 -129 -88z" />
<glyph unicode="U" d="M51 512v1536h103v-1536q0 -80 32 -158q31 -76 88 -131q55 -59 132 -88q78 -33 157 -33q76 0 158 33q74 31 131 88q55 55 86 131q33 78 33 158v1536h104v-1536v-2q-2 -100 -41 -199q-41 -90 -110 -161q-35 -35 -76 -62t-86 -47q-100 -41 -199 -41q-102 0 -201 41 q-92 41 -161 109q-35 37 -61.5 77.5t-47.5 83.5q-41 98 -41 201z" />
<glyph unicode="V" horiz-adv-x="1128" d="M51 0v2048h105v-1944h411q41 0 81 7.5t79 23.5q35 16 67.5 38t61.5 50q53 53 88 131q31 74 31 158v1536h102v-1536q0 -106 -39 -199q-37 -92 -108 -163q-72 -72 -164 -109q-47 -23 -96 -32t-101 -9h-463h-55z" />
<glyph unicode="W" horiz-adv-x="2043" d="M51 510v1538h107v-1542q0 -76 28 -156q35 -74 88 -127q31 -29 62 -50t65 -38q41 -16 80 -22.5t80 -6.5q90 0 160 29q39 16 70.5 38t60.5 50q29 29 50.5 60.5t37.5 66.5q31 80 31 160v1538h104v-1538q0 -41 7.5 -80t23.5 -80q16 -35 38.5 -66.5t47.5 -60.5 q31 -29 62.5 -50t68.5 -38q72 -29 160 -29t159 29q74 35 127 88q29 29 50.5 60.5t38.5 66.5q30 78 30 155v5v1538h105v-1538v-2q0 -51 -9.5 -100.5t-31.5 -94.5q-37 -90 -107 -163q-35 -33 -77 -62t-87 -47q-94 -41 -198 -41q-100 0 -199 41q-47 18 -88 47t-76 62 q-61 66 -96 137q-18 -39 -44 -73t-54 -64q-37 -33 -77 -62t-87 -47q-47 -20 -96.5 -30.5t-104.5 -10.5q-102 0 -194 41q-47 18 -88 47t-76 62q-70 70 -111 163q-18 47 -29.5 95.5t-11.5 101.5z" />
<glyph unicode="X" horiz-adv-x="1021" d="M51 0v102q86 0 158 33q78 33 131 88q57 57 88 131q16 37 23.5 77t7.5 81v1024q0 41 -7.5 81t-23.5 77q-31 74 -88 131q-53 55 -131 88q-72 33 -158 33v102q104 0 201 -39q88 -39 162 -111q31 -29 54.5 -63.5t43.5 -73.5q16 39 42 74t54 63q70 70 162 111q96 39 201 39 v-102q-86 0 -158 -33q-78 -33 -131 -88q-29 -29 -50.5 -61.5t-37.5 -69.5q-31 -74 -31 -158v-1024q0 -84 31 -158q16 -37 37.5 -69.5t50.5 -61.5q53 -55 131 -88q72 -33 158 -33v-102q-100 0 -201 41q-45 20 -86 47t-76 62q-29 31 -54.5 64.5t-41.5 72.5q-20 -39 -44 -73 t-54 -64q-70 -68 -162 -109q-100 -41 -201 -41z" />
<glyph unicode="Y" d="M51 1534v514h103v-514q0 -78 32 -160q35 -76 88 -129q29 -29 61 -50t68 -38q74 -33 160 -33q82 0 160 33q72 31 129 88q57 53 88 129q29 72 33 154h-2v520h104v-514q0 -53 -9 -103.5t-32 -97.5q-37 -90 -108 -162q-35 -35 -76 -62.5t-86 -47.5q-70 -31 -150 -37v-1024 h-102v1024q-76 6 -150 37q-92 41 -161 110q-72 72 -109 162q-41 98 -41 201z" />
<glyph unicode="Z" horiz-adv-x="1124" d="M49 1946v102h920h104v-565q0 -109 -39 -199q-20 -47 -48 -88t-62 -76q-74 -70 -162 -106q-98 -41 -199 -41q-84 0 -160 -31q-78 -35 -129 -90q-61 -57 -88 -127q-30 -72 -30 -153v-5v-463h917v-104h-917h-105v565v2v2q0 51 10.5 99.5t28.5 95.5q41 94 111 164 q35 35 75.5 62.5t88.5 43.5q94 41 198 41q80 0 158 31q76 35 129 88q57 57 88 129q31 76 31 160v463h-920z" />
<glyph unicode="_" horiz-adv-x="952" d="M51 0v104h848v-104h-848z" />
<glyph unicode="a" d="M51 512q0 106 40 199.5t109.5 163t163 109.5t199.5 40t199.5 -40t163 -109.5t109.5 -163t40 -199.5v-14v-498h-104v205q-70 -92 -175.5 -148.5t-232.5 -56.5q-106 0 -199.5 40t-163 109.5t-109.5 163t-40 199.5zM156 512q0 -84 30 -160q35 -76 88 -129t129 -88 q39 -16 79 -23.5t81 -7.5t81 7.5t79 23.5q37 16 69.5 38t59.5 50q53 53 88 129q14 35 22.5 72t8.5 76v12q0 82 -31 160q-16 37 -37.5 69.5t-50.5 57.5q-27 29 -59.5 51t-69.5 39q-78 31 -160 31q-84 0 -160 -31q-78 -35 -129 -90q-29 -25 -50 -57.5t-38 -69.5 q-30 -76 -30 -155v-5z" />
<glyph unicode="b" d="M51 512v1536h105v-1227q70 92 176 147.5t231 55.5q106 0 199.5 -40t163 -109.5t109.5 -163t40 -199.5t-40 -199.5t-109.5 -163t-162.5 -109.5t-200 -40q-106 0 -199.5 40t-163 109.5t-109.5 163t-40 199.5zM156 512q0 -84 30 -160q29 -68 88 -129q57 -57 129 -88 q76 -31 160 -31q82 0 160 31q76 31 129 88q57 57 88 129q16 39 24.5 79t8.5 81q0 86 -33 160q-31 76 -88 129q-53 57 -129 88q-74 33 -160 33q-41 0 -81 -8.5t-79 -24.5q-72 -31 -129 -88q-29 -29 -50 -60.5t-38 -68.5q-30 -76 -30 -155v-5z" />
<glyph unicode="c" horiz-adv-x="974" d="M51 512q0 109 39 201q39 88 111 159q74 74 161 111q98 41 201 41q100 0 199 -41q92 -39 162 -111l-74 -71q-49 53 -127 88q-78 31 -160 31q-84 0 -160 -31q-37 -16 -69.5 -38t-59.5 -50q-29 -29 -50 -60.5t-38 -68.5q-30 -76 -30 -155v-5q0 -84 30 -160q31 -72 88 -127 q27 -29 60 -51t69 -39q76 -31 160 -31t158 31q80 35 129 90l74 -73q-35 -37 -76 -64t-86 -47q-98 -41 -199 -41q-102 0 -201 41q-45 20 -84.5 47t-76.5 64q-35 35 -62.5 75.5t-48.5 83.5q-39 92 -39 201z" />
<glyph unicode="d" d="M51 512q0 106 40 199.5t109.5 163t163 109.5t199.5 40q127 0 232.5 -55.5t177.5 -149.5v1229h102v-1536q0 -106 -40 -199.5t-109.5 -163t-162.5 -109.5t-200 -40q-106 0 -199.5 40t-163 109.5t-109.5 163t-40 199.5zM186 352q31 -72 88 -129q29 -29 62 -50t67 -38 q74 -33 160 -33t160 33q74 31 131 88q53 53 86 129q33 74 33 160t-33 160q-31 74 -86 129q-57 57 -131 88q-74 33 -160 33t-160 -33q-35 -16 -67.5 -38t-61.5 -50q-29 -29 -50 -60.5t-38 -68.5q-32 -80 -32 -155q0 -83 32 -165z" />
<glyph unicode="e" horiz-adv-x="1120" d="M51 510q0 109 39 201t109 163q72 70 163 109q98 41 199 41q102 0 201 -41q47 -20 88 -47t76 -62q70 -72 108 -163q41 -94 41 -201q0 -16 -1 -26.5t-1 -26.5h-53h-862q4 -27 10 -53.5t16 -51.5q16 -37 38 -69.5t50 -61.5q29 -29 62 -50t69 -38q74 -31 158 -31t162 31 q68 29 129 88l74 -74q-72 -70 -164 -108q-92 -39 -201 -39q-106 0 -199 39q-92 39 -163 108q-70 72 -109 164t-39 199zM158 563h811q-6 53 -29 109q-31 72 -88 129t-129 88q-74 31 -162 31q-84 0 -158 -31t-131 -88q-59 -61 -88 -129q-10 -27 -16 -53.5t-10 -55.5z" />
<glyph unicode="f" horiz-adv-x="614" d="M51 461v104h209v975q0 104 39 195q41 94 111 163q69 70 161 111q47 18 97.5 28.5t103.5 10.5v-102q-82 0 -160 -33q-37 -16 -69.5 -38t-61.5 -50q-29 -29 -50 -61.5t-38 -67.5q-31 -74 -31 -160v-971h201v-104h-201v-461h-102v461h-209z" />
<glyph unicode="g" d="M49 -510q0 53 10.5 103.5t28.5 97.5q20 47 48 88t63 74l73 -72q-53 -59 -88 -129q-32 -76 -32 -157q0 -85 32 -165q35 -70 88 -129q59 -53 129 -88q41 -18 80 -25.5t80 -7.5q45 0 83 7.5t79 25.5q35 16 67.5 39t61.5 49q57 59 88 129q18 41 25.5 79t7.5 81v709 q-68 -92 -175.5 -145.5t-236.5 -53.5q-104 0 -197.5 40t-163 109.5t-109.5 163t-40 199.5t40 199.5t109.5 163t163 109.5t197.5 40q106 0 200.5 -40t164 -109.5t109.5 -163t40 -199.5v-16v-1006q0 -49 -9 -101.5t-30 -99.5q-20 -45 -47.5 -86t-64.5 -75q-63 -70 -162 -111 q-47 -20 -97.5 -29.5t-103.5 -9.5q-49 0 -100 9t-99 30q-94 41 -163 111q-70 70 -111 161q-39 100 -39 201zM186 350q31 -68 86 -129q66 -59 129 -88q41 -18 80 -24.5t80 -6.5q45 0 83 6.5t79 24.5q72 31 129 88q57 59 88 129q18 37 25.5 74t7.5 76v12q0 41 -7.5 80 t-25.5 80q-29 68 -88 129q-57 53 -129 88q-76 35 -162 35q-82 0 -160 -35q-35 -16 -66.5 -39t-62.5 -49q-27 -29 -48 -61.5t-38 -67.5q-34 -74 -34 -155q0 -89 34 -167z" />
<glyph unicode="h" d="M51 0v512v12v1524h103v-1227q25 31 49 53q72 74 162 111q90 39 198 39q106 0 199 -39q88 -37 162 -111q76 -72 110 -163q37 -88 41 -197v-2v-512h-102v512q0 41 -9.5 81t-23.5 79q-33 70 -88 129t-131 90q-37 14 -77 22.5t-81 8.5t-81 -8.5t-81 -22.5q-70 -31 -125 -90 q-59 -57 -90 -129q-14 -35 -22 -73t-10 -75v-524h-103z" />
<glyph unicode="i" horiz-adv-x="204" d="M51 0v1024h103v-1024h-103zM51 1280q0 23 15.5 37t35.5 14q23 0 37.5 -14t14.5 -37q0 -20 -14.5 -35.5t-37.5 -15.5q-20 0 -35.5 15.5t-15.5 35.5z" />
<glyph unicode="j" horiz-adv-x="1130" d="M51 -514q0 115 41 205q16 45 45 87t64 77l71 -74q-25 -27 -47 -61.5t-39 -69.5q-30 -76 -30 -159v-5q0 -82 30 -156q16 -39 39 -71.5t47 -61.5q29 -29 62 -49t72 -37q74 -31 155 -31q86 0 164 31q35 16 69.5 37t61.5 49q55 59 88 133q31 74 31 154v1540h104v-1538 q0 -51 -11 -100.5t-30 -98.5q-16 -45 -44.5 -86t-63.5 -75q-35 -35 -76 -64t-88 -47q-92 -39 -205 -39q-104 0 -196 39q-47 18 -88 47t-76 64t-63.5 75.5t-45.5 85.5q-41 94 -41 199zM975 1280q0 23 15.5 37t35.5 14q23 0 37 -14t14 -37t-14 -38t-37 -15q-20 0 -35.5 15 t-15.5 38z" />
<glyph unicode="k" horiz-adv-x="1112" d="M51 0v10v1014h103v-655l835 655l66 -82l-557 -434q16 2 32.5 3t32.5 1q100 0 199 -41q45 -18 86 -46t76 -63t63.5 -75.5t46.5 -87.5q41 -94 41 -199h-104q0 86 -33 160q-31 74 -86 129q-29 29 -61.5 49t-67.5 37q-39 18 -79 25.5t-81 7.5t-82 -7.5t-78 -25.5 q-37 -16 -68.5 -37t-60.5 -49q-57 -53 -88 -129q-29 -68 -32 -150v-10h-103z" />
<glyph unicode="l" horiz-adv-x="614" d="M51 510v1538h103v-1536q0 -78 32 -160q31 -72 88 -129t129 -88q82 -33 160 -33v-102q-109 0 -198 41q-92 37 -164 109t-109 163q-23 47 -31 95.5t-10 101.5z" />
<glyph unicode="m" horiz-adv-x="2041" d="M51 0v514v10v500h105v-205q16 29 45 53q72 72 161 111q98 41 199 41q102 0 201 -41q45 -20 85 -48t75 -63q59 -57 98 -137q37 76 98 137q70 70 164 111t197 41q104 0 198 -41t164 -111q72 -72 109 -159q20 -49 30.5 -97.5t10.5 -101.5v-514h-105v514q0 82 -31 156 q-16 37 -37.5 69.5t-50.5 61.5t-60.5 50t-68.5 38q-78 31 -159 31q-84 0 -158 -31q-72 -31 -129 -88q-29 -29 -50.5 -61.5t-37.5 -69.5q-31 -74 -31 -156v-514h-104v514q0 84 -33 156q-31 72 -86 131q-61 59 -129 88q-78 31 -160 31q-84 0 -158 -31q-70 -29 -129 -88 q-29 -29 -50 -61.5t-38 -69.5q-31 -68 -30 -146v-524h-105z" />
<glyph unicode="n" horiz-adv-x="1124" d="M51 0v512v10v502h103v-203q12 14 23 26.5t24 24.5q37 35 76.5 64t87.5 47q98 41 198 41q98 0 197 -41q47 -18 87 -47t77 -64q68 -68 108 -161q23 -47 31 -96.5t10 -100.5v-2v-512h-102v512q0 80 -33 158q-16 37 -37.5 69.5t-50.5 61.5q-57 57 -131 88t-156 31 q-88 0 -157 -31q-78 -33 -132 -88q-55 -53 -88 -131q-14 -35 -22 -72t-10 -76v-522h-103z" />
<glyph unicode="o" d="M51 512q0 106 40 199.5t109.5 163t163 109.5t199.5 40t199.5 -40t163 -109.5t110.5 -163t41 -199.5t-41 -199.5t-110.5 -163t-162.5 -109.5t-200 -40q-106 0 -199.5 40t-163 109.5t-109.5 163t-40 199.5zM156 512q0 -82 30 -158q31 -74 88 -131t132 -88q76 -31 157 -31 q84 0 158 31q39 16 71.5 37.5t61.5 50.5q55 59 86 131q33 82 33 158q0 80 -33 158q-16 39 -37.5 70.5t-48.5 60.5q-29 29 -61.5 50t-71.5 38q-74 31 -158 31q-82 0 -157 -31q-74 -31 -132 -88q-29 -29 -50 -60.5t-38 -70.5q-30 -72 -30 -153v-5z" />
<glyph unicode="p" d="M51 512q0 106 40 199.5t109.5 163t163 109.5t199.5 40t199.5 -40t163 -109.5t109.5 -163t40 -199.5t-40 -199.5t-109.5 -163t-162.5 -109.5t-200 -40q-127 0 -232.5 56.5t-176.5 148.5v-1229h-103v1536zM162 432q8 -39 24 -80q16 -35 38 -67.5t50 -63.5q29 -27 62 -48 t67 -38q76 -31 160 -31q82 0 160 31q72 33 131 86q53 63 86 131q16 41 24.5 80t8.5 80q0 78 -33 160q-35 74 -86 129q-57 57 -131 88q-82 33 -160 33t-160 -33q-35 -16 -67.5 -38t-61.5 -50q-29 -29 -50 -60.5t-38 -68.5q-32 -80 -32 -155q0 -46 8 -85z" />
<glyph unicode="q" d="M51 510q0 106 40 200.5t109.5 164t163 109.5t199.5 40t199.5 -40t163 -109.5t109.5 -164t40 -200.5v-12v-1522h-102v1227q-72 -92 -177.5 -147.5t-232.5 -55.5q-106 0 -199.5 40t-163 109.5t-109.5 163t-40 197.5zM154 510q0 -76 32 -158q16 -35 39 -68.5t49 -62.5 q59 -55 129 -86q78 -33 160 -33q86 0 160 33q72 31 131 86q27 29 48.5 62.5t37.5 68.5q33 68 33 148v10q0 88 -33 162q-16 37 -37.5 68.5t-48.5 60.5q-57 57 -131 88q-82 33 -160 33q-41 0 -80 -8.5t-80 -24.5q-72 -31 -129 -88q-27 -29 -49 -60.5t-39 -68.5 q-16 -39 -24 -79t-8 -83z" />
<glyph unicode="r" horiz-adv-x="974" d="M51 0v512v12v500h103v-203q25 31 49 53q35 35 74.5 63t84.5 48q96 39 201 39q107 0 199 -39q90 -39 162 -111l-74 -73q-53 57 -129 88q-78 33 -158 33q-41 0 -81 -8.5t-79 -22.5q-35 -16 -67.5 -39t-61.5 -51q-29 -29 -50 -60.5t-38 -68.5q-29 -68 -32 -150v-522h-103z " />
<glyph unicode="s" d="M51 459v53q0 106 39 199q39 92 111 163q72 72 164 111t198 39q104 0 201 -39q88 -39 164 -111l-76 -73q-29 29 -60.5 50t-70.5 38q-78 33 -158 33t-157 -33q-72 -29 -132 -88q-29 -29 -50 -60.5t-38 -70.5q-10 -25 -17 -51.5t-11 -53.5h917v-53q0 -106 -39 -199 q-20 -47 -46.5 -88t-61.5 -75q-76 -72 -164 -111q-96 -39 -201 -39q-106 0 -198 39t-164 111l73 73q59 -59 132 -88q78 -33 157 -33q80 0 158 33q39 16 70.5 38t60.5 50q59 59 88 131q23 51 29 105h-918z" />
<glyph unicode="t" horiz-adv-x="823" d="M51 1483v104h207v461h104v-461h201v-104h-201v-973q0 -84 33 -156q14 -37 36 -69.5t50 -61.5q29 -29 60.5 -50.5t70.5 -37.5q78 -33 160 -33v-102q-102 0 -201 41q-47 20 -87 47t-76 64q-68 68 -109 161q-41 94 -41 197v973h-207z" />
<glyph unicode="u" horiz-adv-x="1124" d="M51 512v512h105v-512q0 -80 30 -160q29 -68 88 -129q59 -59 129 -86q74 -33 160 -33q80 0 158 33q35 14 67.5 36t61.5 50q29 29 50.5 61.5t35.5 67.5q33 74 33 160v512h104v-512v-2q-2 -51 -10 -100.5t-31 -96.5q-18 -47 -47 -87t-63 -76q-35 -35 -75 -63t-87 -46 q-90 -41 -197 -41q-53 0 -102 9t-96 32q-47 18 -87 46t-77 63q-35 37 -62.5 76.5t-46.5 86.5q-41 90 -41 199z" />
<glyph unicode="v" horiz-adv-x="1128" d="M51 0v1024h103v-922h411q86 0 160 33q76 31 129 88q59 59 88 129q31 74 31 158v514h104v-514v-4q-4 -104 -39 -195q-20 -45 -47.5 -86t-64.5 -75q-68 -72 -162 -109q-94 -41 -197 -41h-461h-55z" />
<glyph unicode="w" horiz-adv-x="2041" d="M51 512v512h105v-516q0 -82 30 -156q16 -37 38 -69.5t48 -61.5q55 -53 131 -84q72 -33 160 -33q84 0 158 33t129 84q57 57 88 131q33 72 33 160v512h102v-512q0 -84 31 -160q16 -37 37.5 -69.5t50.5 -61.5q61 -55 131 -84q74 -33 158 -33q86 0 157 33q76 31 131 84 q55 59 86 131q33 72 33 160v512h103v-512v-2q0 -106 -39 -199q-41 -92 -111 -161q-35 -35 -75 -63t-87 -46q-98 -41 -198 -41t-199 41q-47 18 -87 46t-75 63q-31 31 -56.5 64.5t-43.5 72.5q-33 -74 -96 -137q-35 -35 -76 -63t-86 -46q-100 -41 -199 -41q-102 0 -201 41 q-47 18 -86.5 46t-74.5 63q-72 72 -109 161q-41 98 -41 201z" />
<glyph unicode="x" horiz-adv-x="1107" d="M51 0v104q82 0 160 31q72 31 129 88t88 131q16 39 24.5 78t8.5 80t-8.5 80t-24.5 78q-31 74 -88 131t-129 88q-82 33 -160 33v102q53 0 102.5 -9t96.5 -32q92 -37 164 -109q70 -70 110 -161q23 -53 31 -107q4 29 11 54.5t18 52.5q41 92 110 161q72 72 164 109 q47 23 97.5 32t101.5 9v-102q-41 0 -80 -8.5t-78 -24.5q-37 -16 -69.5 -37.5t-61.5 -50.5t-50.5 -61.5t-37.5 -69.5q-16 -39 -24.5 -78t-8.5 -80t8.5 -80t24.5 -78q16 -37 37.5 -69.5t50.5 -61.5t61.5 -50t69.5 -38q76 -31 158 -31v-104q-51 0 -101.5 9t-97.5 32 q-47 18 -88 47t-76 64q-72 72 -110 161q-18 51 -29 105q-10 -57 -31 -105q-39 -90 -110 -161q-35 -35 -76 -64t-88 -47q-47 -23 -96.5 -32t-102.5 -9z" />
<glyph unicode="y" horiz-adv-x="1124" d="M51 508h105v4q0 -86 30 -162q16 -35 37 -67.5t49 -61.5q29 -29 63 -50t71 -38q74 -31 157 -31q84 0 158 31q37 16 69.5 38t61.5 50q29 29 49.5 61.5t36.5 67.5q33 78 33 150v-297q-18 -27 -45 -53q-70 -70 -164 -111q-92 -39 -199 -39q-109 0 -198 39q-88 39 -164 111 q-35 35 -61.5 75.5t-49.5 85.5q-39 96 -39 197zM51 508v4v512h105v-512v-4h-105zM971 203v297v524h102v-512v-12v-1524h-102v1227zM1073 500v12h2q0 -4 -1 -6t-1 -6z" />
<glyph unicode="z" horiz-adv-x="1122" d="M51 0v53q0 100 41 199q41 90 109 162q70 70 161 110q92 39 199 39q78 0 160 33q76 31 129 88q55 55 86 129q25 49 31 107h-916v104h1020v-51v-10q0 -100 -39 -191q-41 -92 -110 -162q-35 -35 -75 -62.5t-85 -47.5q-98 -41 -201 -41q-84 0 -158 -31q-76 -31 -129 -88 q-29 -29 -50 -60.5t-38 -68.5q-23 -55 -28 -107h915v-104h-1022z" />
<glyph unicode="&#xa1;" horiz-adv-x="206" d="M51 0v1868h105v-1868h-105zM51 1995q0 23 14.5 38t36.5 15q23 0 38.5 -15.5t15.5 -37.5q0 -23 -15.5 -37t-38.5 -14q-51 0 -51 51z" />
<glyph unicode="&#xad;" horiz-adv-x="899" d="M51 461v104h797v-104h-797zM51 461v104h797v-104h-797z" />
<glyph unicode="&#xb4;" horiz-adv-x="1705" d="M563 1243l146 148l73 -72l-145 -148z" />
<glyph unicode="&#xbf;" d="M51 512v61q2 96 41 191q41 92 109 164q35 35 74.5 62.5t86.5 43.5q98 41 201 41q39 0 79 7.5t79 25.5q35 16 67.5 36.5t61.5 49.5q57 57 88 131t31 160v379h104v-383q0 -102 -41 -197q-18 -47 -47 -87t-63 -77q-70 -72 -162 -106q-94 -41 -197 -41q-86 0 -157 -33 q-39 -16 -71 -36.5t-61 -49.5q-55 -53 -88 -131t-32 -160v-51q0 -80 32 -158q33 -78 88 -131q59 -59 132 -88q78 -33 157 -33q78 0 160 33q37 16 69.5 38t61.5 50q29 29 49.5 61.5t36.5 69.5q31 74 31 158h104q0 -106 -41 -201q-18 -45 -45.5 -86t-62.5 -75q-35 -35 -76 -62 t-88 -47q-94 -41 -199 -41q-102 0 -201 41q-94 41 -161 109q-35 35 -61.5 75.5t-47.5 85.5q-41 98 -41 201zM971 1997q0 23 14 37t37 14t38 -14.5t15 -36.5q0 -23 -15 -37t-38 -14t-37 14t-14 37z" />
<glyph unicode="&#xd1;" horiz-adv-x="1124" d="M51 0v1536v10v25q4 43 14.5 84t26.5 80q37 92 109 163q70 70 164 111q90 39 198 39q102 0 199 -39q92 -41 162 -111t110 -163q39 -90 39 -197v-2v-1536h-102v1536q0 78 -33 160q-31 72 -88 129q-29 29 -61.5 50t-67.5 38q-82 33 -158 33q-80 0 -157 -33q-78 -33 -132 -88 q-29 -29 -50 -61.5t-38 -67.5q-29 -68 -32 -150v-1546h-103zM305 2249v102h514v-102h-514z" />
<glyph unicode="&#xe1;" d="M51 512q0 106 40 199.5t109.5 163t163 109.5t199.5 40t199.5 -40t163 -109.5t109.5 -163t40 -199.5v-14v-498h-104v205q-70 -92 -175.5 -148.5t-232.5 -56.5q-106 0 -199.5 40t-163 109.5t-109.5 163t-40 199.5zM156 512q0 -84 30 -160q35 -76 88 -129t129 -88 q39 -16 79 -23.5t81 -7.5t81 7.5t79 23.5q37 16 69.5 38t59.5 50q53 53 88 129q14 35 22.5 72t8.5 76v12q0 82 -31 160q-16 37 -37.5 69.5t-50.5 57.5q-27 29 -59.5 51t-69.5 39q-78 31 -160 31q-84 0 -160 -31q-78 -35 -129 -90q-29 -25 -50 -57.5t-38 -69.5 q-31 -78 -30 -160zM563 1243l146 148l73 -72l-145 -148z" />
<glyph unicode="&#xe9;" horiz-adv-x="1120" d="M51 510q0 109 39 201t109 163q72 70 163 109q98 41 199 41q102 0 201 -41q47 -20 88 -47t76 -62q70 -72 108 -163q41 -94 41 -201q0 -16 -1 -26.5t-1 -26.5h-53h-862q4 -27 10 -53.5t16 -51.5q16 -37 38 -69.5t50 -61.5q29 -29 62 -50t69 -38q74 -31 158 -31t162 31 q68 29 129 88l74 -74q-72 -70 -164 -108q-92 -39 -201 -39q-106 0 -199 39q-92 39 -163 108q-70 72 -109 164t-39 199zM158 563h811q-6 53 -29 109q-31 72 -88 129t-129 88q-74 31 -162 31q-84 0 -158 -31t-131 -88q-59 -61 -88 -129q-10 -27 -16 -53.5t-10 -55.5zM559 1239 l143 147l76 -73l-143 -148z" />
<glyph unicode="&#xed;" horiz-adv-x="215" d="M51 0v1024h113v-1024h-113zM51 1243l158 146l80 -72l-158 -148z" />
<glyph unicode="&#xf1;" horiz-adv-x="1124" d="M51 0v512v10v502h103v-203q12 14 23 26.5t24 24.5q37 35 76.5 64t87.5 47q98 41 198 41q98 0 197 -41q47 -18 87 -47t77 -64q68 -68 108 -161q23 -47 31 -96.5t10 -100.5v-2v-512h-102v512q0 80 -33 158q-16 37 -37.5 69.5t-50.5 61.5q-57 57 -131 88t-156 31 q-88 0 -157 -31q-78 -33 -132 -88q-55 -53 -88 -131q-14 -35 -22 -72t-10 -76v-522h-103zM303 1225v102h514v-102h-514z" />
<glyph unicode="&#xf3;" d="M51 512q0 106 40 199.5t109.5 163t163 109.5t199.5 40t199.5 -40t163 -109.5t110.5 -163t41 -199.5t-41 -199.5t-110.5 -163t-162.5 -109.5t-200 -40q-106 0 -199.5 40t-163 109.5t-109.5 163t-40 199.5zM156 512q0 -82 30 -158q31 -74 88 -131t132 -88q76 -31 157 -31 q84 0 158 31q39 16 71.5 37.5t61.5 50.5q55 59 86 131q33 82 33 158q0 80 -33 158q-16 39 -37.5 70.5t-48.5 60.5q-29 29 -61.5 50t-71.5 38q-74 31 -158 31q-82 0 -157 -31q-74 -31 -132 -88q-29 -29 -50 -60.5t-38 -70.5q-31 -74 -30 -158zM565 1245l148 146l73 -72 l-147 -148z" />
<glyph unicode="&#xf7;" horiz-adv-x="899" d="M51 461v104h797v-104h-797zM397 770q0 23 15.5 37t36.5 14q23 0 38 -14t15 -37t-15.5 -38t-37.5 -15q-20 0 -36 15t-16 38zM403 256q0 23 15.5 38t36.5 15q23 0 38 -15t15 -38t-15.5 -37t-37.5 -14q-20 0 -36 14t-16 37z" />
<glyph unicode="&#xfa;" horiz-adv-x="1124" d="M51 512v512h105v-512q0 -80 30 -160q29 -68 88 -129q59 -59 129 -86q74 -33 160 -33q80 0 158 33q35 14 67.5 36t61.5 50q29 29 50.5 61.5t35.5 67.5q33 74 33 160v512h104v-512v-2q-2 -51 -10 -100.5t-31 -96.5q-18 -47 -47 -87t-63 -76q-35 -35 -75 -63t-87 -46 q-90 -41 -197 -41q-53 0 -102 9t-96 32q-47 18 -87 46t-77 63q-35 37 -62.5 76.5t-46.5 86.5q-41 90 -41 199zM559 1239l148 145l71 -71l-143 -146z" />
<glyph unicode="&#xff;" horiz-adv-x="1124" d="M51 508h105v4q0 -86 30 -162q16 -35 37 -67.5t49 -61.5q29 -29 63 -50t71 -38q74 -31 157 -31q84 0 158 31q37 16 69.5 38t61.5 50q29 29 49.5 61.5t36.5 67.5q33 78 33 150v-297q-18 -27 -45 -53q-70 -70 -164 -111q-92 -39 -199 -39q-109 0 -198 39q-88 39 -164 111 q-35 35 -61.5 75.5t-49.5 85.5q-39 96 -39 197zM51 508v4v512h105v-512v-4h-105zM971 203v297v524h102v-512v-12v-1524h-102v1227zM1073 500v12h2q0 -4 -1 -6t-1 -6z" />
<glyph unicode="&#x2dc;" horiz-adv-x="1705" />
<glyph unicode="&#x2000;" horiz-adv-x="1175" />
<glyph unicode="&#x2001;" horiz-adv-x="2351" />
<glyph unicode="&#x2002;" horiz-adv-x="1175" />
<glyph unicode="&#x2003;" horiz-adv-x="2351" />
<glyph unicode="&#x2004;" horiz-adv-x="783" />
<glyph unicode="&#x2005;" horiz-adv-x="587" />
<glyph unicode="&#x2006;" horiz-adv-x="391" />
<glyph unicode="&#x2007;" horiz-adv-x="391" />
<glyph unicode="&#x2008;" horiz-adv-x="293" />
<glyph unicode="&#x2009;" horiz-adv-x="470" />
<glyph unicode="&#x200a;" horiz-adv-x="130" />
<glyph unicode="&#x2010;" horiz-adv-x="899" d="M51 461v104h797v-104h-797zM51 461v104h797v-104h-797z" />
<glyph unicode="&#x2011;" horiz-adv-x="899" d="M51 461v104h797v-104h-797zM51 461v104h797v-104h-797z" />
<glyph unicode="&#x2012;" horiz-adv-x="899" d="M51 461v104h797v-104h-797zM51 461v104h797v-104h-797z" />
<glyph unicode="&#x2013;" horiz-adv-x="899" d="M51 461v104h797v-104h-797z" />
<glyph unicode="&#x2014;" horiz-adv-x="2150" d="M51 461v104h2048v-104h-2048zM51 461v104h2048v-104h-2048z" />
<glyph unicode="&#x201c;" horiz-adv-x="358" d="M51 1849v199h101v-199h-101zM205 1849v199h100v-199h-100z" />
<glyph unicode="&#x201d;" horiz-adv-x="358" d="M51 1849v199h101v-199h-101zM205 1849v199h100v-199h-100z" />
<glyph unicode="&#x202f;" horiz-adv-x="470" />
<glyph unicode="&#x205f;" horiz-adv-x="587" />
<glyph unicode="&#x25fc;" horiz-adv-x="1024" d="M0 0v1024h1024v-1024h-1024z" />
</font>
</defs>
</svg>
